<svg xmlns:dc="http://purl.org/dc/elements/1.1/" xmlns:cc="http://creativecommons.org/ns#" xmlns:rdf="http://www.w3.org/1999/02/22-rdf-syntax-ns#" xmlns:svg="http://www.w3.org/2000/svg" xmlns="http://www.w3.org/2000/svg" xmlns:sodipodi="http://sodipodi.sourceforge.net/DTD/sodipodi-0.dtd" xmlns:inkscape="http://www.inkscape.org/namespaces/inkscape" viewBox="0 0 28 28" version="1.1" x="0px" y="0px">
	<g transform="translate(0,-270.54165)">
		<path fill="white" style="font-style:normal;font-variant:normal;font-weight:normal;font-stretch:normal;font-size:medium;line-height:normal;font-family:sans-serif;font-variant-ligatures:normal;font-variant-position:normal;font-variant-caps:normal;font-variant-numeric:normal;font-variant-alternates:normal;font-feature-settings:normal;text-indent:0;text-align:start;text-decoration:none;text-decoration-line:none;text-decoration-style:solid;letter-spacing:normal;word-spacing:normal;text-transform:none;writing-mode:lr-tb;direction:ltr;text-orientation:mixed;dominant-baseline:auto;baseline-shift:baseline;text-anchor:start;white-space:normal;shape-padding:0;clip-rule:nonzero;display:inline;overflow:visible;visibility:visible;opacity:1;isolation:auto;mix-blend-mode:normal;color-interpolation:sRGB;color-interpolation-filters:linearRGB;solid-opacity:1;vector-effect:none;fill-opacity:1;fill-rule:evenodd;stroke:none;stroke-width:1.05833328;stroke-linecap:round;stroke-linejoin:round;stroke-miterlimit:4;stroke-dasharray:none;stroke-dashoffset:0;stroke-opacity:1;paint-order:normal;color-rendering:auto;image-rendering:auto;shape-rendering:auto;text-rendering:auto;enable-background:accumulate" d="m 9.8428177,272.12915 c -1.043596,0 -1.905317,0.85061 -1.905317,1.89241 a 0.52921959,0.52921959 0 1 0 1.058333,0 c 0,-0.46845 0.366078,-0.83408 0.846984,-0.83408 H 20.849379 c 0.480801,0 0.846455,0.36563 0.846455,0.83408 v 15.26521 c 0,0.46842 -0.365654,0.83405 -0.846455,0.83405 a 0.52921959,0.52921959 0 1 0 0,1.05833 c 1.043543,0 1.904788,-0.85061 1.904788,-1.89238 v -15.26521 c 0,-1.0418 -0.861245,-1.89241 -1.904788,-1.89241 z m -4.233333,4.23333 c -1.04357,0 -1.905318,0.85061 -1.905318,1.89241 v 15.26521 c 0,1.04177 0.861748,1.89238 1.905318,1.89238 H 16.616045 c 1.04357,0 1.904789,-0.85058 1.904789,-1.89238 v -15.26521 c 0,-1.04182 -0.861245,-1.89241 -1.904789,-1.89241 z m 0,1.05834 H 16.616045 c 0.480854,0 0.846455,0.36562 0.846455,0.83407 v 15.26521 c 0,0.4684 -0.365601,0.83405 -0.846455,0.83405 H 5.6094847 c -0.480854,0 -0.846984,-0.36563 -0.846984,-0.83405 v -15.26521 c 0,-0.46845 0.366104,-0.83407 0.846984,-0.83407 z" />
	</g>
</svg>
