<svg xmlns="http://www.w3.org/2000/svg" xmlns:xlink="http://www.w3.org/1999/xlink" version="1.1" x="0px" y="0px" viewBox="0 0 100 100" enable-background="new 0 0 100 100" xml:space="preserve">
	<path fill="white" d="M41.756,35.003c0-2.503-2.037-4.539-4.54-4.539c-2.503,0-4.54,2.036-4.54,4.539s2.037,4.54,4.54,4.54  C39.719,39.543,41.756,37.506,41.756,35.003z" />
	<path fill="white" d="M61.797,42.583c2.503,0,4.54-2.037,4.54-4.54s-2.037-4.54-4.54-4.54c-2.503,0-4.54,2.037-4.54,4.54  S59.294,42.583,61.797,42.583z" />
	<path fill="white" d="M36.161,59.966c0.145,0.816,0.921,1.364,1.738,1.215c0.136-0.022,13.728-2.349,21.534,2.769  c0.253,0.166,0.539,0.245,0.821,0.245c0.489,0,0.968-0.238,1.256-0.678c0.454-0.692,0.261-1.623-0.432-2.077  c-8.81-5.773-23.099-3.32-23.703-3.212C36.56,58.372,36.016,59.15,36.161,59.966z" />
	<path fill="white" d="M25.206,27.928c0.407,0,0.813-0.164,1.109-0.487c0.265-0.288,6.545-6.977,14.027-0.962c0.647,0.52,1.591,0.417,2.109-0.229  c0.519-0.646,0.417-1.59-0.229-2.108c-7.77-6.247-15.254-1.892-18.128,1.283c-0.555,0.613-0.507,1.558,0.104,2.114  C24.485,27.8,24.846,27.928,25.206,27.928z" />
	<path fill="white" d="M59.134,30.268c0.162,0,0.327-0.026,0.488-0.082c0.079-0.025,7.968-2.686,14.759-0.021c0.77,0.302,1.642-0.077,1.944-0.849  c0.302-0.771-0.077-1.642-0.849-1.944c-7.808-3.063-16.467-0.147-16.832-0.021c-0.784,0.27-1.2,1.123-0.93,1.906  C57.93,29.878,58.511,30.268,59.134,30.268z" />
	<path fill="white" d="M17.268,83.057c0.625,5.359,2.688,12.5,13.341,12.636c0.301,0.004,0.597,0.006,0.889,0.006  c6.784,0,11.212-1.023,13.487-3.109c1.71,0.195,3.398,0.312,5.015,0.312c24.427,0,44.3-19.873,44.3-44.3S74.427,4.302,50,4.302  S5.7,24.175,5.7,48.602c0,11.154,4.156,21.759,11.701,29.962C17.161,80.211,17.109,81.695,17.268,83.057z M30.647,92.692  c-8.128-0.103-9.801-4.859-10.399-9.983c-0.146-1.254-0.073-2.724,0.218-4.366c0.567-3.203,1.862-6.437,2.72-8.577  c0.248-0.618,0.464-1.158,0.626-1.601c0.613-1.671,0.293-3.686,0.011-5.464c-0.114-0.718-0.278-1.75-0.246-2.254  c0.533-0.154,1.144-0.235,1.512,0.019c1.052,0.73,1.122,3.997,1.164,5.949c0.02,0.95,0.04,1.847,0.13,2.585  c0.3,2.435,2.285,5.222,10.006,4.678c1.824-0.128,4.734-0.977,8.104-1.958c3.186-0.929,6.796-1.98,9.955-2.549  c1.92-0.346,2.693-0.017,2.752,0.188c0.133,0.466-0.468,1.533-1.144,1.805c-2.297,0.917-12.35,4.718-12.451,4.756  c-0.7,0.265-1.098,1.004-0.933,1.734c0.164,0.729,0.835,1.218,1.587,1.164c0.068-0.008,0.118-0.006,0.152-0.003  c0.232,0.51-0.031,2.3-0.561,3.733c-0.222,0.6-0.04,1.275,0.455,1.681c1.088,0.894-0.056,2.403-0.291,2.69  c-0.287,0.343-0.407,0.796-0.326,1.235c0.143,0.776,0.005,1.387-0.433,1.922C42.415,91.103,39.679,92.814,30.647,92.692z M50,7.302  c22.773,0,41.3,18.527,41.3,41.3s-18.527,41.3-41.3,41.3c-1.092,0-2.218-0.049-3.364-0.145c0.02-0.101,0.026-0.207,0.04-0.31  c0.012-0.087,0.026-0.172,0.034-0.26c0.026-0.296,0.037-0.597,0.014-0.907c0.478-0.732,1.166-2.074,1.028-3.559  c-0.069-0.744-0.338-1.432-0.79-2.03c0.387-1.294,0.823-3.375,0.248-4.93c3.17-1.202,8.349-3.171,9.958-3.813  c1.892-0.758,3.539-3.235,2.913-5.417c-0.018-0.061-0.038-0.127-0.064-0.196c-0.201-0.556-0.663-1.347-1.724-1.843  c-0.928-0.435-2.313-0.644-4.379-0.274c-3.315,0.597-7.006,1.673-10.263,2.622c-3.071,0.895-5.971,1.739-7.475,1.846  c-2.967,0.208-6.562,0.023-6.817-2.053c-0.072-0.587-0.09-1.41-0.109-2.282c-0.064-3.006-0.145-6.747-2.453-8.349  c-1.188-0.825-2.707-0.924-4.515-0.29c-2.17,0.757-1.774,3.255-1.424,5.46c0.225,1.416,0.479,3.022,0.136,3.96  c-0.154,0.42-0.359,0.933-0.594,1.519c-0.136,0.34-0.285,0.714-0.439,1.104c-0.049,0.125-0.096,0.246-0.146,0.375  c-0.142,0.365-0.286,0.744-0.433,1.141c-0.033,0.089-0.065,0.171-0.098,0.261c-0.17,0.465-0.339,0.951-0.505,1.451  c-0.043,0.128-0.083,0.258-0.125,0.388c-0.133,0.413-0.262,0.833-0.385,1.261c-0.028,0.096-0.06,0.187-0.087,0.284  C12.048,67.518,8.7,58.277,8.7,48.602C8.7,25.829,27.227,7.302,50,7.302z" />
</svg>
